<svg xmlns="http://www.w3.org/2000/svg" viewBox="0 0 400 280" fill="none">
  <defs>
    <linearGradient id="bg" x1="0" y1="0" x2="400" y2="280"><stop stop-color="#1E2848"/><stop offset="1" stop-color="#101828"/></linearGradient>
    <linearGradient id="floor" x1="0" y1="188" x2="0" y2="280"><stop stop-color="#6A6058"/><stop offset="1" stop-color="#3A3428"/></linearGradient>
    <linearGradient id="gold" x1="0" y1="0" x2="1" y2="1"><stop stop-color="#FFE566"/><stop offset="0.5" stop-color="#E8C547"/><stop offset="1" stop-color="#9A7420"/></linearGradient>
    <radialGradient id="spot" cx="200" cy="72" r="120"><stop stop-color="#FFE566" stop-opacity="0.22"/><stop offset="1" stop-opacity="0"/></radialGradient>
  </defs>
  <rect width="400" height="280" fill="url(#bg)" rx="8"/>
  <rect x="0" y="188" width="400" height="92" fill="url(#floor)"/>
  <ellipse cx="200" cy="72" rx="120" ry="80" fill="url(#spot)"/>
  <line x1="0" y1="188" x2="400" y2="188" stroke="#E8C547" stroke-opacity="0.2" stroke-width="1.2"/>

  <rect x="20" y="16" width="360" height="140" rx="4" fill="#2A1808" fill-opacity="0.55" stroke="url(#gold)" stroke-opacity="0.4"/>
  <rect x="20" y="56" width="360" height="14" fill="#4A3020" fill-opacity="0.55"/>
  <rect x="28" y="38" width="12" height="18" rx="1" fill="#6B3FA0"/>
  <rect x="62" y="34" width="12" height="22" rx="1" fill="#4ECDC4"/>
  <rect x="96" y="30" width="12" height="26" rx="1" fill="#E67E22"/>
  <rect x="130" y="38" width="12" height="18" rx="1" fill="#8B4513"/>
  <rect x="164" y="34" width="12" height="22" rx="1" fill="#2C5282"/>
  <rect x="198" y="30" width="12" height="26" rx="1" fill="#9B2C2C"/>
  <rect x="232" y="38" width="12" height="18" rx="1" fill="#276749"/>
  <rect x="266" y="34" width="12" height="22" rx="1" fill="#805AD5"/>
  <rect x="300" y="30" width="12" height="26" rx="1" fill="#C05621"/>
  <rect x="334" y="38" width="12" height="18" rx="1" fill="#319795"/>
  <rect x="20" y="96" width="360" height="14" fill="#4A3020" fill-opacity="0.55"/>
  <rect x="28" y="78" width="12" height="18" rx="1" fill="#6B3FA0"/>
  <rect x="62" y="74" width="12" height="22" rx="1" fill="#4ECDC4"/>
  <rect x="96" y="70" width="12" height="26" rx="1" fill="#E67E22"/>
  <rect x="130" y="78" width="12" height="18" rx="1" fill="#8B4513"/>
  <rect x="164" y="74" width="12" height="22" rx="1" fill="#2C5282"/>
  <rect x="198" y="70" width="12" height="26" rx="1" fill="#9B2C2C"/>
  <rect x="232" y="78" width="12" height="18" rx="1" fill="#276749"/>
  <rect x="266" y="74" width="12" height="22" rx="1" fill="#805AD5"/>
  <rect x="300" y="70" width="12" height="26" rx="1" fill="#C05621"/>
  <rect x="334" y="78" width="12" height="18" rx="1" fill="#319795"/>
  <rect x="20" y="136" width="360" height="14" fill="#4A3020" fill-opacity="0.55"/>
  <rect x="28" y="118" width="12" height="18" rx="1" fill="#6B3FA0"/>
  <rect x="62" y="114" width="12" height="22" rx="1" fill="#4ECDC4"/>
  <rect x="96" y="110" width="12" height="26" rx="1" fill="#E67E22"/>
  <rect x="130" y="118" width="12" height="18" rx="1" fill="#8B4513"/>
  <rect x="164" y="114" width="12" height="22" rx="1" fill="#2C5282"/>
  <rect x="198" y="110" width="12" height="26" rx="1" fill="#9B2C2C"/>
  <rect x="232" y="118" width="12" height="18" rx="1" fill="#276749"/>
  <rect x="266" y="114" width="12" height="22" rx="1" fill="#805AD5"/>
  <rect x="300" y="110" width="12" height="26" rx="1" fill="#C05621"/>
  <rect x="334" y="118" width="12" height="18" rx="1" fill="#319795"/></svg>
