<svg xmlns="http://www.w3.org/2000/svg" viewBox="0 0 400 280" fill="none">
  <defs>
    <linearGradient id="bg" x1="0" y1="0" x2="400" y2="280"><stop stop-color="#1A2030"/><stop offset="1" stop-color="#0A1018"/></linearGradient>
    <linearGradient id="floor" x1="0" y1="188" x2="0" y2="280"><stop stop-color="#6A6058"/><stop offset="1" stop-color="#3A3428"/></linearGradient>
    <linearGradient id="gold" x1="0" y1="0" x2="1" y2="1"><stop stop-color="#FFE566"/><stop offset="0.5" stop-color="#E8C547"/><stop offset="1" stop-color="#9A7420"/></linearGradient>
    <radialGradient id="spot" cx="200" cy="72" r="120"><stop stop-color="#FFE566" stop-opacity="0.22"/><stop offset="1" stop-opacity="0"/></radialGradient>
  </defs>
  <rect width="400" height="280" fill="url(#bg)" rx="8"/>
  <rect x="0" y="188" width="400" height="92" fill="url(#floor)"/>
  <ellipse cx="200" cy="72" rx="120" ry="80" fill="url(#spot)"/>
  <line x1="0" y1="188" x2="400" y2="188" stroke="#E8C547" stroke-opacity="0.2" stroke-width="1.2"/>

  <rect x="48" y="32" width="304" height="200" rx="4" fill="#2A2838" stroke="url(#gold)" stroke-opacity="0.35"/>
  <line x1="48" y1="88" x2="352" y2="88" stroke="#E8C547" stroke-opacity="0.15"/>
  <line x1="48" y1="144" x2="352" y2="144" stroke="#E8C547" stroke-opacity="0.15"/>
  <rect x="64" y="48" width="48" height="32" rx="2" fill="#4ECDC4" fill-opacity="0.35"/>
  <rect x="128" y="52" width="40" height="28" rx="2" fill="#E85D04" fill-opacity="0.35"/>
  <rect x="200" y="100" width="56" height="36" rx="2" fill="#8A8070" fill-opacity="0.5"/>
  <rect x="280" y="160" width="48" height="56" rx="2" fill="#5A5048"/></svg>
