<svg xmlns="http://www.w3.org/2000/svg" viewBox="0 0 400 280" fill="none">
  <defs>
    <linearGradient id="lb-bg" x1="0" y1="0" x2="400" y2="280"><stop stop-color="#1E2848"/><stop offset="1" stop-color="#101828"/></linearGradient>
    <linearGradient id="lb-gold" x1="0" y1="0" x2="1" y2="1"><stop stop-color="#FFE566"/><stop offset="1" stop-color="#9A7420"/></linearGradient>
    <radialGradient id="lb-lamp" cx="0" cy="0" r="1" gradientTransform="translate(200 180) scale(90)"><stop stop-color="#FFE566" stop-opacity="0.45"/><stop offset="1" stop-opacity="0"/></radialGradient>
  </defs>
  <rect width="400" height="280" fill="url(#lb-bg)" rx="8"/>
  <ellipse cx="200" cy="180" rx="90" ry="70" fill="url(#lb-lamp)"/>
  <!-- Tall shelves -->
  <rect x="20" y="16" width="360" height="120" rx="4" fill="#2A1808" fill-opacity="0.55" stroke="url(#lb-gold)" stroke-opacity="0.4"/>
  <line x1="20" y1="56" x2="380" y2="56" stroke="#E8C547" stroke-opacity="0.2"/>
  <line x1="20" y1="96" x2="380" y2="96" stroke="#E8C547" stroke-opacity="0.2"/>
  <g>
    <rect x="30" y="24" width="12" height="28" rx="1" fill="#6B3FA0"/><rect x="46" y="20" width="10" height="32" rx="1" fill="#4ECDC4"/>
    <rect x="60" y="26" width="12" height="26" rx="1" fill="#E67E22"/><rect x="76" y="22" width="10" height="30" rx="1" fill="#8B4513"/>
    <rect x="90" y="24" width="12" height="28" rx="1" fill="#2C5282"/><rect x="106" y="20" width="10" height="32" rx="1" fill="#9B2C2C"/>
    <rect x="120" y="26" width="12" height="26" rx="1" fill="#276749"/><rect x="136" y="22" width="10" height="30" rx="1" fill="#805AD5"/>
    <rect x="150" y="24" width="12" height="28" rx="1" fill="#C05621"/><rect x="166" y="20" width="10" height="32" rx="1" fill="#319795"/>
    <rect x="180" y="26" width="12" height="26" rx="1" fill="#553C9A"/><rect x="196" y="22" width="10" height="30" rx="1" fill="#DD6B20"/>
    <rect x="210" y="24" width="12" height="28" rx="1" fill="#38A169"/><rect x="226" y="20" width="10" height="32" rx="1" fill="#B7791F"/>
    <rect x="240" y="26" width="12" height="26" rx="1" fill="#2B6CB0"/><rect x="256" y="22" width="10" height="30" rx="1" fill="#744210"/>
    <rect x="270" y="24" width="12" height="28" rx="1" fill="#6B46C1"/><rect x="286" y="20" width="10" height="32" rx="1" fill="#E53E3E"/>
    <rect x="300" y="26" width="12" height="26" rx="1" fill="#2F855A"/><rect x="316" y="22" width="10" height="32" rx="1" fill="#D69E2E"/>
    <rect x="330" y="24" width="12" height="28" rx="1" fill="#4A5568"/><rect x="346" y="20" width="10" height="32" rx="1" fill="#4299E1"/>
  </g>
  <!-- Reading table -->
  <rect x="80" y="168" width="240" height="14" rx="3" fill="#5C3820"/>
  <rect x="100" y="182" width="8" height="48" fill="#3A2410"/>
  <rect x="292" y="182" width="8" height="48" fill="#3A2410"/>
  <!-- Reading lamps -->
  <line x1="120" y1="168" x2="120" y2="140" stroke="url(#lb-gold)" stroke-width="2"/>
  <circle cx="120" cy="134" r="10" fill="#FFE566" fill-opacity="0.65"/>
  <line x1="280" y1="168" x2="280" y2="140" stroke="url(#lb-gold)" stroke-width="2"/>
  <circle cx="280" cy="134" r="10" fill="#FFE566" fill-opacity="0.65"/>
  <!-- Quiet sign -->
  <rect x="168" y="148" width="64" height="20" rx="3" fill="#4B2A8C" fill-opacity="0.6" stroke="url(#lb-gold)" stroke-opacity="0.5"/>
  <text x="200" y="163" fill="#FFE566" font-family="Outfit,sans-serif" font-size="11" font-weight="700" text-anchor="middle">QUIET</text>
  <!-- Ladder -->
  <line x1="360" y1="140" x2="360" y2="230" stroke="#8A8070" stroke-width="3"/>
  <line x1="348" y1="160" x2="372" y2="160" stroke="#8A8070" stroke-width="2"/>
  <line x1="348" y1="190" x2="372" y2="190" stroke="#8A8070" stroke-width="2"/>
</svg>
