<svg xmlns="http://www.w3.org/2000/svg" viewBox="0 0 400 280" fill="none">
  <defs>
    <linearGradient id="br-bg" x1="0" y1="0" x2="400" y2="280"><stop stop-color="#2A3848"/><stop offset="1" stop-color="#141C28"/></linearGradient>
    <linearGradient id="br-gold" x1="0" y1="0" x2="1" y2="1"><stop stop-color="#FFE566"/><stop offset="1" stop-color="#9A7420"/></linearGradient>
  </defs>
  <rect width="400" height="280" fill="url(#br-bg)" rx="8"/>
  <!-- Counter -->
  <rect x="24" y="108" width="200" height="16" rx="3" fill="#D4C8B8"/>
  <rect x="24" y="124" width="200" height="56" rx="2" fill="#C8B8A0" fill-opacity="0.6"/>
  <!-- Microwave -->
  <rect x="40" y="56" width="56" height="40" rx="3" fill="#3A3830" stroke="#6A6058"/>
  <rect x="48" y="64" width="40" height="24" rx="1" fill="#1A1818"/>
  <circle cx="84" cy="76" r="4" fill="#4ECDC4" fill-opacity="0.5"/>
  <!-- Fridge -->
  <rect x="240" y="40" width="72" height="140" rx="4" fill="#E8ECEE" stroke="#A8B0B4"/>
  <line x1="240" y1="108" x2="312" y2="108" stroke="#B8C0C4"/>
  <!-- Coffee machine -->
  <rect x="128" y="72" width="40" height="32" rx="3" fill="#2A2820"/>
  <rect x="136" y="80" width="24" height="16" rx="1" fill="#4A4840"/>
  <ellipse cx="148" cy="68" rx="8" ry="6" fill="#8B4513" fill-opacity="0.6"/>
  <!-- Mugs -->
  <ellipse cx="64" cy="100" rx="10" ry="6" fill="#F5F0E8"/><ellipse cx="88" cy="98" rx="10" ry="6" fill="#4ECDC4" fill-opacity="0.5"/>
  <!-- Table -->
  <rect x="80" y="188" width="160" height="12" rx="3" fill="#5C3820"/>
  <rect x="96" y="200" width="8" height="36" fill="#3A2410"/><rect x="216" y="200" width="8" height="36" fill="#3A2410"/>
  <!-- Snacks -->
  <rect x="100" y="176" width="24" height="14" rx="2" fill="#E85D04" fill-opacity="0.6"/>
  <rect x="132" y="178" width="20" height="12" rx="2" fill="#FFE566" fill-opacity="0.5"/>
  <!-- Pendant light -->
  <ellipse cx="160" cy="40" rx="40" ry="30" fill="#FFE566" fill-opacity="0.15"/>
  <path d="M148 48 Q160 32 172 48" fill="#F5F0E8" stroke="#A89880"/>
</svg>
