<svg xmlns="http://www.w3.org/2000/svg" viewBox="0 0 400 280" fill="none">
  <defs>
    <linearGradient id="gy-bg" x1="0" y1="0" x2="400" y2="280"><stop stop-color="#1A3048"/><stop offset="1" stop-color="#0E1828"/></linearGradient>
    <linearGradient id="gy-floor" x1="0" y1="160" x2="0" y2="280"><stop stop-color="#C87838"/><stop offset="1" stop-color="#9A5820"/></linearGradient>
    <linearGradient id="gy-gold" x1="0" y1="0" x2="1" y2="1"><stop stop-color="#FFE566"/><stop offset="1" stop-color="#9A7420"/></linearGradient>
  </defs>
  <rect width="400" height="280" fill="url(#gy-bg)" rx="8"/>
  <rect x="0" y="168" width="400" height="112" fill="url(#gy-floor)"/>
  <line x1="0" y1="168" x2="400" y2="168" stroke="#E8C547" stroke-opacity="0.25"/>
  <!-- Court lines -->
  <circle cx="200" cy="220" r="48" stroke="#FFE566" stroke-opacity="0.2" fill="none"/>
  <line x1="200" y1="168" x2="200" y2="280" stroke="#FFE566" stroke-opacity="0.15"/>
  <!-- Basketball hoop -->
  <rect x="168" y="32" width="64" height="6" rx="1" fill="#8A8070"/>
  <rect x="196" y="38" width="8" height="48" fill="#6A6058"/>
  <ellipse cx="200" cy="92" rx="28" ry="6" fill="none" stroke="#E85D04" stroke-width="2.5"/>
  <rect x="172" y="86" width="56" height="4" rx="1" fill="#E85D04" fill-opacity="0.5"/>
  <!-- Basketball -->
  <circle cx="120" cy="200" r="18" fill="#E85D04" fill-opacity="0.8"/>
  <path d="M102 200 Q120 188 138 200" stroke="#2A1810" stroke-opacity="0.3" fill="none"/>
  <path d="M120 182 Q108 200 120 218" stroke="#2A1810" stroke-opacity="0.3" fill="none"/>
  <!-- Weight rack -->
  <rect x="280" y="80" width="80" height="8" rx="2" fill="#4A4840"/>
  <rect x="288" y="88" width="6" height="72" fill="#3A3830"/>
  <rect x="356" y="88" width="6" height="72" fill="#3A3830"/>
  <ellipse cx="304" cy="100" rx="14" ry="8" fill="#5A5850" stroke="#8A8078"/><ellipse cx="332" cy="100" rx="14" ry="8" fill="#5A5850" stroke="#8A8078"/>
  <ellipse cx="304" cy="130" rx="12" ry="7" fill="#4A4840"/><ellipse cx="332" cy="130" rx="12" ry="7" fill="#4A4840"/>
  <!-- Treadmill -->
  <rect x="32" y="120" width="72" height="36" rx="4" fill="#2A3848" stroke="#4A5868"/>
  <rect x="40" y="128" width="56" height="16" rx="2" fill="#1A2838"/>
  <rect x="48" y="148" width="8" height="20" fill="#3A4858"/><rect x="80" y="148" width="8" height="20" fill="#3A4858"/>
  <!-- Mirror wall -->
  <rect x="24" y="48" width="8" height="112" fill="#C8D0D8" fill-opacity="0.35"/>
  <rect x="368" y="48" width="8" height="112" fill="#C8D0D8" fill-opacity="0.35"/>
  <!-- Yoga mats -->
  <rect x="160" y="200" width="48" height="12" rx="2" fill="#4ECDC4" fill-opacity="0.45" transform="rotate(-8 184 206)"/>
  <rect x="200" y="208" width="48" height="12" rx="2" fill="#81C784" fill-opacity="0.45" transform="rotate(6 224 214)"/>
</svg>
