<svg xmlns="http://www.w3.org/2000/svg" viewBox="0 0 400 280" fill="none">
  <defs>
    <linearGradient id="gl-bg" x1="0" y1="0" x2="400" y2="280"><stop stop-color="#1E1828"/><stop offset="1" stop-color="#0E0818"/></linearGradient>
    <linearGradient id="gl-gold" x1="0" y1="0" x2="1" y2="1"><stop stop-color="#FFE566"/><stop offset="1" stop-color="#9A7420"/></linearGradient>
    <radialGradient id="gl-spot1" cx="100" cy="80" r="60"><stop stop-color="#FFE566" stop-opacity="0.4"/><stop offset="1" stop-opacity="0"/></radialGradient>
    <radialGradient id="gl-spot2" cx="280" cy="100" r="60"><stop stop-color="#FFE566" stop-opacity="0.35"/><stop offset="1" stop-opacity="0"/></radialGradient>
  </defs>
  <rect width="400" height="280" fill="url(#gl-bg)" rx="8"/>
  <ellipse cx="100" cy="80" rx="60" ry="50" fill="url(#gl-spot1)"/>
  <ellipse cx="280" cy="100" rx="60" ry="50" fill="url(#gl-spot2)"/>
  <!-- Gallery wall -->
  <rect x="24" y="32" width="352" height="160" fill="#2A2030" fill-opacity="0.5"/>
  <!-- Frames -->
  <rect x="40" y="48" width="80" height="64" rx="2" fill="#1A1008" stroke="url(#gl-gold)" stroke-width="1.5"/>
  <rect x="48" y="56" width="64" height="48" fill="#6B4E71" fill-opacity="0.55"/>
  <rect x="160" y="40" width="96" height="72" rx="2" fill="#1A1008" stroke="url(#gl-gold)" stroke-width="2"/>
  <rect x="168" y="48" width="80" height="56" fill="#8B7355" fill-opacity="0.5"/>
  <path d="M180 88 Q208 64 236 88" stroke="#E8C547" stroke-opacity="0.4" fill="none"/>
  <rect x="280" y="52" width="72" height="56" rx="2" fill="#1A1008" stroke="url(#gl-gold)" stroke-width="1.5"/>
  <rect x="288" y="60" width="56" height="40" fill="#4A6888" fill-opacity="0.45"/>
  <!-- Sculpture pedestal -->
  <rect x="168" y="168" width="64" height="12" rx="2" fill="#5A5048"/>
  <rect x="184" y="148" width="32" height="24" rx="4" fill="#8B7355" fill-opacity="0.6"/>
  <ellipse cx="200" cy="140" rx="16" ry="20" fill="#D4A574" fill-opacity="0.5"/>
  <!-- Bench -->
  <rect x="48" y="200" width="80" height="10" rx="2" fill="#5C3820"/>
  <rect x="56" y="210" width="6" height="24" fill="#3A2410"/><rect x="114" y="210" width="6" height="24" fill="#3A2410"/>
  <!-- Rope barrier -->
  <line x1="320" y1="180" x2="360" y2="180" stroke="#E8C547" stroke-opacity="0.4"/>
  <circle cx="320" cy="180" r="4" fill="#9A7420"/><circle cx="360" cy="180" r="4" fill="#9A7420"/>
</svg>
