<svg xmlns="http://www.w3.org/2000/svg" viewBox="0 0 400 280" fill="none">
  <defs>
    <linearGradient id="md-bg" x1="0" y1="0" x2="400" y2="280"><stop stop-color="#1A3048"/><stop offset="1" stop-color="#0E1828"/></linearGradient>
    <linearGradient id="md-gold" x1="0" y1="0" x2="1" y2="1"><stop stop-color="#FFE566"/><stop offset="1" stop-color="#9A7420"/></linearGradient>
  </defs>
  <rect width="400" height="280" fill="url(#md-bg)" rx="8"/>
  <!-- Hospital bed -->
  <rect x="48" y="140" width="140" height="24" rx="6" fill="#F0F4F8" stroke="#A8B8C8"/>
  <rect x="56" y="132" width="124" height="16" rx="4" fill="#E8ECEE"/>
  <rect x="48" y="164" width="8" height="48" fill="#8A98A8"/><rect x="180" y="164" width="8" height="48" fill="#8A98A8"/>
  <rect x="160" y="148" width="24" height="8" rx="2" fill="#5B9BD5" fill-opacity="0.5"/>
  <!-- IV stand -->
  <line x1="220" y1="80" x2="220" y2="200" stroke="#A8B0B4" stroke-width="2"/>
  <circle cx="220" cy="72" r="8" fill="none" stroke="#4ECDC4" stroke-width="1.5"/>
  <path d="M212 100 Q220 120 228 100" stroke="#4ECDC4" stroke-opacity="0.4" fill="none"/>
  <!-- Monitor -->
  <rect x="240" y="88" width="64" height="48" rx="3" fill="#2A3848" stroke="#4A5868"/>
  <path d="M252 120 L268 104 L284 116 L296 100" stroke="#70AD47" stroke-width="2" fill="none"/>
  <!-- Nurses counter -->
  <rect x="280" y="168" width="96" height="14" rx="2" fill="#E8E0D4"/>
  <rect x="288" y="182" width="80" height="40" rx="2" fill="#D0C8BC" fill-opacity="0.6"/>
  <!-- Medical cross -->
  <rect x="320" y="48" width="48" height="48" rx="4" fill="#F0F4F8" fill-opacity="0.15" stroke="#5B9BD5" stroke-opacity="0.5"/>
  <rect x="338" y="58" width="12" height="28" rx="1" fill="#E63946" fill-opacity="0.7"/>
  <rect x="330" y="66" width="28" height="12" rx="1" fill="#E63946" fill-opacity="0.7"/>
  <!-- Soft lighting -->
  <ellipse cx="120" cy="120" rx="80" ry="60" fill="#5B9BD5" fill-opacity="0.08"/>
</svg>
