<svg xmlns="http://www.w3.org/2000/svg" viewBox="0 0 200 200" fill="none">
  <defs>
    <radialGradient id="ve-core" cx="0" cy="0" r="1" gradientUnits="userSpaceOnUse" gradientTransform="translate(100 100) rotate(90) scale(90)">
      <stop stop-color="#5A3890"/>
      <stop offset="0.55" stop-color="#2A1848"/>
      <stop offset="1" stop-color="#0C0614"/>
    </radialGradient>
    <linearGradient id="ve-gold" x1="0" y1="0" x2="200" y2="200" gradientUnits="userSpaceOnUse">
      <stop stop-color="#FFE566"/>
      <stop offset="0.5" stop-color="#E8C547"/>
      <stop offset="1" stop-color="#9A7420"/>
    </linearGradient>
    <radialGradient id="ve-glow" cx="0" cy="0" r="1" gradientUnits="userSpaceOnUse" gradientTransform="translate(100 88) rotate(90) scale(60)">
      <stop stop-color="#FFE566" stop-opacity="0.5"/>
      <stop offset="1" stop-color="#FFE566" stop-opacity="0"/>
    </radialGradient>
  </defs>
  <circle cx="100" cy="100" r="92" fill="url(#ve-glow)"/>
  <polygon points="100,12 168,40 188,100 168,160 100,188 32,160 12,100 32,40" fill="url(#ve-core)" stroke="url(#ve-gold)" stroke-width="3.5"/>
  <polygon points="100,36 148,56 162,100 148,144 100,164 52,144 38,100 52,56" fill="#12081C" fill-opacity="0.85" stroke="#E8C547" stroke-opacity="0.35"/>
  <!-- Crown -->
  <ellipse cx="100" cy="128" rx="36" ry="12" fill="#4A1020" fill-opacity="0.7"/>
  <circle cx="100" cy="104" r="28" fill="#2A1808" stroke="url(#ve-gold)" stroke-width="2"/>
  <path d="M76 98 L88 72 L100 88 L112 72 L124 98 Z" fill="url(#ve-gold)"/>
  <circle cx="100" cy="88" r="5" fill="#FFE566"/>
  <!-- Gem studs -->
  <circle cx="100" cy="16" r="5" fill="url(#ve-gold)"/>
  <circle cx="172" cy="44" r="4" fill="url(#ve-gold)"/>
  <circle cx="188" cy="100" r="4" fill="url(#ve-gold)"/>
  <circle cx="172" cy="156" r="4" fill="url(#ve-gold)"/>
  <circle cx="100" cy="184" r="5" fill="url(#ve-gold)"/>
  <circle cx="28" cy="156" r="4" fill="url(#ve-gold)"/>
  <circle cx="12" cy="100" r="4" fill="url(#ve-gold)"/>
  <circle cx="28" cy="44" r="4" fill="url(#ve-gold)"/>
</svg>
