<svg xmlns="http://www.w3.org/2000/svg" viewBox="0 0 400 280" fill="none">
  <defs>
    <linearGradient id="bg" x1="0" y1="0" x2="400" y2="280"><stop stop-color="#1A3A5C"/><stop offset="1" stop-color="#0E2238"/></linearGradient>
    <linearGradient id="floor" x1="0" y1="188" x2="0" y2="280"><stop stop-color="#6A6058"/><stop offset="1" stop-color="#3A3428"/></linearGradient>
    <linearGradient id="gold" x1="0" y1="0" x2="1" y2="1"><stop stop-color="#FFE566"/><stop offset="0.5" stop-color="#E8C547"/><stop offset="1" stop-color="#9A7420"/></linearGradient>
    <radialGradient id="spot" cx="200" cy="72" r="120"><stop stop-color="#FFE566" stop-opacity="0.22"/><stop offset="1" stop-opacity="0"/></radialGradient>
  </defs>
  <rect width="400" height="280" fill="url(#bg)" rx="8"/>
  <rect x="0" y="188" width="400" height="92" fill="url(#floor)"/>
  <ellipse cx="200" cy="72" rx="120" ry="80" fill="url(#spot)"/>
  <line x1="0" y1="188" x2="400" y2="188" stroke="#E8C547" stroke-opacity="0.2" stroke-width="1.2"/>

  <rect x="32" y="24" width="336" height="72" rx="4" fill="#2A6A48" stroke="url(#gold)" stroke-width="1.5"/>
  <text x="56" y="68" fill="#FFE566" font-family="Outfit,sans-serif" font-size="22" font-weight="800">ABC  123</text>
  <circle cx="352" cy="44" r="18" fill="#F5F0E8" stroke="#A89880"/>
  <rect x="40" y="118" width="56" height="10" rx="2" fill="#8A8070"/>
  <rect x="44" y="128" width="6" height="22" fill="#5A5048"/>
  <rect x="86" y="128" width="6" height="22" fill="#5A5048"/>
  <rect x="112" y="118" width="56" height="10" rx="2" fill="#8A8070"/>
  <rect x="116" y="128" width="6" height="22" fill="#5A5048"/>
  <rect x="158" y="128" width="6" height="22" fill="#5A5048"/>
  <rect x="184" y="118" width="56" height="10" rx="2" fill="#8A8070"/>
  <rect x="188" y="128" width="6" height="22" fill="#5A5048"/>
  <rect x="230" y="128" width="6" height="22" fill="#5A5048"/>
  <rect x="40" y="166" width="56" height="10" rx="2" fill="#8A8070"/>
  <rect x="44" y="176" width="6" height="22" fill="#5A5048"/>
  <rect x="86" y="176" width="6" height="22" fill="#5A5048"/>
  <rect x="112" y="166" width="56" height="10" rx="2" fill="#8A8070"/>
  <rect x="116" y="176" width="6" height="22" fill="#5A5048"/>
  <rect x="158" y="176" width="6" height="22" fill="#5A5048"/>
  <rect x="184" y="166" width="56" height="10" rx="2" fill="#8A8070"/>
  <rect x="188" y="176" width="6" height="22" fill="#5A5048"/>
  <rect x="230" y="176" width="6" height="22" fill="#5A5048"/>
  <rect x="40" y="214" width="56" height="10" rx="2" fill="#8A8070"/>
  <rect x="44" y="224" width="6" height="22" fill="#5A5048"/>
  <rect x="86" y="224" width="6" height="22" fill="#5A5048"/>
  <rect x="112" y="214" width="56" height="10" rx="2" fill="#8A8070"/>
  <rect x="116" y="224" width="6" height="22" fill="#5A5048"/>
  <rect x="158" y="224" width="6" height="22" fill="#5A5048"/>
  <rect x="184" y="214" width="56" height="10" rx="2" fill="#8A8070"/>
  <rect x="188" y="224" width="6" height="22" fill="#5A5048"/>
  <rect x="230" y="224" width="6" height="22" fill="#5A5048"/>
  <circle cx="320" cy="108" r="22" fill="#4ECDC4" fill-opacity="0.4" stroke="url(#gold)"/></svg>
