<svg xmlns="http://www.w3.org/2000/svg" viewBox="0 0 400 280" fill="none">
  <defs>
    <linearGradient id="bg" x1="0" y1="0" x2="400" y2="280"><stop stop-color="#1A2838"/><stop offset="1" stop-color="#0E1828"/></linearGradient>
    <linearGradient id="floor" x1="0" y1="188" x2="0" y2="280"><stop stop-color="#6A6058"/><stop offset="1" stop-color="#3A3428"/></linearGradient>
    <linearGradient id="gold" x1="0" y1="0" x2="1" y2="1"><stop stop-color="#FFE566"/><stop offset="0.5" stop-color="#E8C547"/><stop offset="1" stop-color="#9A7420"/></linearGradient>
    <radialGradient id="spot" cx="200" cy="72" r="120"><stop stop-color="#FFE566" stop-opacity="0.22"/><stop offset="1" stop-opacity="0"/></radialGradient>
  </defs>
  <rect width="400" height="280" fill="url(#bg)" rx="8"/>
  <rect x="0" y="188" width="400" height="92" fill="url(#floor)"/>
  <ellipse cx="200" cy="72" rx="120" ry="80" fill="url(#spot)"/>
  <line x1="0" y1="188" x2="400" y2="188" stroke="#E8C547" stroke-opacity="0.2" stroke-width="1.2"/>

  <path d="M80 40 L320 40 L360 260 L40 260 Z" fill="#3A4858" fill-opacity="0.65"/>
  <rect x="108" y="72" width="36" height="88" rx="2" fill="#5A6878" stroke="#8A98A8" stroke-width="0.8"/>
  <circle cx="138" cy="86" r="2" fill="url(#gold)"/>
  <rect x="152" y="72" width="36" height="88" rx="2" fill="#5A6878" stroke="#8A98A8" stroke-width="0.8"/>
  <circle cx="182" cy="86" r="2" fill="url(#gold)"/>
  <rect x="196" y="72" width="36" height="88" rx="2" fill="#5A6878" stroke="#8A98A8" stroke-width="0.8"/>
  <circle cx="226" cy="86" r="2" fill="url(#gold)"/>
  <rect x="240" y="72" width="36" height="88" rx="2" fill="#5A6878" stroke="#8A98A8" stroke-width="0.8"/>
  <circle cx="270" cy="86" r="2" fill="url(#gold)"/>
  <rect x="288" y="88" width="48" height="56" rx="2" fill="#8B4513" fill-opacity="0.55" stroke="url(#gold)" stroke-opacity="0.35"/>
  <rect x="148" y="200" width="104" height="10" rx="2" fill="#5C3820"/></svg>
